<?xml version="1.0" encoding="UTF-8" standalone="no"?>
<svg width="40px" height="162px" viewBox="0 0 40 162" version="1.1" xmlns="http://www.w3.org/2000/svg" xmlns:xlink="http://www.w3.org/1999/xlink">
    <!-- Generator: sketchtool 41.1 (35376) - http://www.bohemiancoding.com/sketch -->
    <title>E41AFE56-6875-4464-B7CA-99529E61BC3A</title>
    <desc>Created with sketchtool.</desc>
    <defs></defs>
    <g id="Page-1" stroke="none" stroke-width="1" fill="none" fill-rule="evenodd">
        <g id="시작전" transform="translate(-111.000000, -423.000000)">
            <g id="Group-2" transform="translate(111.000000, 423.000000)">
                <path d="M25.7156605,54.3178769 L21.2939633,54.3178769 L21.2939633,49.2163896 C29.245261,46.1236512 34.2895888,38.4418198 34.503937,28.957422 C34.7713619,17.0988626 27.4549431,6.44473607 15.8658501,1.81481481 L11.3237095,0 L13.3447069,4.45435987 C15.7290755,9.70282881 12.8874307,14.5573053 9.88247302,19.6955381 C6.98979294,24.6418781 3.9970837,29.7556139 5.54447361,35.5470983 C6.80198309,40.2484689 11.0093322,44.6354622 18.3461651,48.9428405 L18.3461651,54.3178769 L13.9183435,54.3178769 C6.24263634,54.3178769 0,60.5625547 0,68.2362205 L0,147.861476 C0,155.537183 6.24467775,161.777778 13.9183435,161.777778 L25.7156605,161.777778 C33.3913677,161.777778 39.6380869,155.5331 39.6380869,147.861476 L39.6380869,68.2382619 C39.6380869,60.5625547 33.3893263,54.3178769 25.7156605,54.3178769 Z M9.33945757,34.5325168 C8.21668125,30.3251677 10.6745407,26.1280257 13.2752989,21.6818314 C15.8086906,17.3519977 18.6074657,12.5669291 18.1195684,7.26538349 C27.4651502,12.6649169 30.7252843,21.9696705 30.5721785,28.8716827 C30.4006999,36.6086323 26.4301546,42.8798484 20.14669,45.4601925 C13.8468941,41.7407407 10.309128,38.160105 9.33945757,34.5325168 Z M25.7156605,157.531642 L13.9183435,157.531642 C8.58617673,157.531642 4.24817731,153.193642 4.24817731,147.863517 L4.24817731,68.2382619 C4.24817731,62.9060951 8.58617673,58.5680957 13.9183435,58.5680957 L25.7156605,58.5680957 C31.0498688,58.5680957 35.3878682,62.9060951 35.3878682,68.2382619 L35.3878682,147.863517 C35.3878682,153.193642 31.0498688,157.531642 25.7156605,157.531642 Z" id="Shape" fill="#000000"></path>
                <path d="M9.16795885,34.3782444 C8.04518253,30.1708953 10.503042,25.9737533 13.1038002,21.5275591 C15.6371919,17.1977253 18.435967,12.4126568 17.9480697,7.11111111 C27.2936515,12.5106445 30.5537856,21.8153981 30.4006798,28.7174103 C30.2292012,36.4543599 26.2586558,42.725576 19.9751913,45.3059201 C13.6753954,41.5864684 10.1376293,38.0058326 9.16795885,34.3782444 Z" id="Path-Copy" fill="#F2C200"></path>
            </g>
        </g>
    </g>
</svg>